<?xml version="1.0" encoding="UTF-8" standalone="no"?>
<!DOCTYPE svg PUBLIC "-//W3C//DTD SVG 1.1//EN"
 "http://www.w3.org/Graphics/SVG/1.1/DTD/svg11.dtd">
<!-- Generated by graphviz version 2.49.2 (20211016.1639)
 -->
<!-- Title: 幅優先探索 Pages: 1 -->
<svg width="128pt" height="1986pt"
 viewBox="0.00 0.00 128.00 1986.00" xmlns="http://www.w3.org/2000/svg" xmlns:xlink="http://www.w3.org/1999/xlink">
<g id="graph0" class="graph" transform="scale(1 1) rotate(0) translate(4 1982)">
<title>幅優先探索</title>
<polygon fill="white" stroke="transparent" points="-4,4 -4,-1982 124,-1982 124,4 -4,4"/>
<!-- 18
123
456
780
UP -->
<g id="node1" class="node">
<title>18
123
456
780
UP</title>
<polygon fill="none" stroke="black" points="0,-0.5 0,-69.5 120,-69.5 120,-0.5 0,-0.5"/>
<text text-anchor="start" x="8" y="-32.3" font-family="Times,serif" font-weight="bold" font-size="14.00">70221</text>
<polyline fill="none" stroke="black" points="51,-0.5 51,-69.5 "/>
<text text-anchor="start" x="59" y="-54.3" font-family="Times,serif" font-size="14.00">1</text>
<polyline fill="none" stroke="black" points="74,-46.5 74,-69.5 "/>
<text text-anchor="start" x="82" y="-54.3" font-family="Times,serif" font-size="14.00">2</text>
<polyline fill="none" stroke="black" points="97,-46.5 97,-69.5 "/>
<text text-anchor="start" x="105" y="-54.3" font-family="Times,serif" font-size="14.00">3</text>
<polyline fill="none" stroke="black" points="51,-46.5 120,-46.5 "/>
<text text-anchor="start" x="59" y="-31.3" font-family="Times,serif" font-size="14.00">4</text>
<polyline fill="none" stroke="black" points="74,-23.5 74,-46.5 "/>
<text text-anchor="start" x="82" y="-31.3" font-family="Times,serif" font-size="14.00">5</text>
<polyline fill="none" stroke="black" points="97,-23.5 97,-46.5 "/>
<text text-anchor="start" x="105" y="-31.3" font-family="Times,serif" font-size="14.00">6</text>
<polyline fill="none" stroke="black" points="51,-23.5 120,-23.5 "/>
<text text-anchor="start" x="59" y="-8.3" font-family="Times,serif" font-size="14.00">7</text>
<polyline fill="none" stroke="black" points="74,-0.5 74,-23.5 "/>
<text text-anchor="start" x="82" y="-8.3" font-family="Times,serif" font-size="14.00">8</text>
<polyline fill="none" stroke="black" points="97,-0.5 97,-23.5 "/>
<text text-anchor="start" x="105" y="-8.3" font-family="Times,serif" font-size="14.00">0</text>
</g>
<!-- 17
123
450
786
UP -->
<g id="node2" class="node">
<title>17
123
450
786
UP</title>
<polygon fill="none" stroke="black" points="0,-106.5 0,-175.5 120,-175.5 120,-106.5 0,-106.5"/>
<text text-anchor="start" x="8" y="-138.3" font-family="Times,serif" font-weight="bold" font-size="14.00">39148</text>
<polyline fill="none" stroke="black" points="51,-106.5 51,-175.5 "/>
<text text-anchor="start" x="59" y="-160.3" font-family="Times,serif" font-size="14.00">1</text>
<polyline fill="none" stroke="black" points="74,-152.5 74,-175.5 "/>
<text text-anchor="start" x="82" y="-160.3" font-family="Times,serif" font-size="14.00">2</text>
<polyline fill="none" stroke="black" points="97,-152.5 97,-175.5 "/>
<text text-anchor="start" x="105" y="-160.3" font-family="Times,serif" font-size="14.00">3</text>
<polyline fill="none" stroke="black" points="51,-152.5 120,-152.5 "/>
<text text-anchor="start" x="59" y="-137.3" font-family="Times,serif" font-size="14.00">4</text>
<polyline fill="none" stroke="black" points="74,-129.5 74,-152.5 "/>
<text text-anchor="start" x="82" y="-137.3" font-family="Times,serif" font-size="14.00">5</text>
<polyline fill="none" stroke="black" points="97,-129.5 97,-152.5 "/>
<text text-anchor="start" x="105" y="-137.3" font-family="Times,serif" font-size="14.00">0</text>
<polyline fill="none" stroke="black" points="51,-129.5 120,-129.5 "/>
<text text-anchor="start" x="59" y="-114.3" font-family="Times,serif" font-size="14.00">7</text>
<polyline fill="none" stroke="black" points="74,-106.5 74,-129.5 "/>
<text text-anchor="start" x="82" y="-114.3" font-family="Times,serif" font-size="14.00">8</text>
<polyline fill="none" stroke="black" points="97,-106.5 97,-129.5 "/>
<text text-anchor="start" x="105" y="-114.3" font-family="Times,serif" font-size="14.00">6</text>
</g>
<!-- 17
123
450
786
UP&#45;&gt;18
123
456
780
UP -->
<g id="edge1" class="edge">
<title>17
123
450
786
UP&#45;&gt;18
123
456
780
UP</title>
<path fill="none" stroke="black" d="M60,-106.23C60,-97.79 60,-88.62 60,-79.77"/>
<polygon fill="black" stroke="black" points="63.5,-79.6 60,-69.6 56.5,-79.6 63.5,-79.6"/>
</g>
<!-- 16
120
453
786
LEFT -->
<g id="node3" class="node">
<title>16
120
453
786
LEFT</title>
<polygon fill="none" stroke="black" points="0,-212.5 0,-281.5 120,-281.5 120,-212.5 0,-212.5"/>
<text text-anchor="start" x="8" y="-244.3" font-family="Times,serif" font-weight="bold" font-size="14.00">23578</text>
<polyline fill="none" stroke="black" points="51,-212.5 51,-281.5 "/>
<text text-anchor="start" x="59" y="-266.3" font-family="Times,serif" font-size="14.00">1</text>
<polyline fill="none" stroke="black" points="74,-258.5 74,-281.5 "/>
<text text-anchor="start" x="82" y="-266.3" font-family="Times,serif" font-size="14.00">2</text>
<polyline fill="none" stroke="black" points="97,-258.5 97,-281.5 "/>
<text text-anchor="start" x="105" y="-266.3" font-family="Times,serif" font-size="14.00">0</text>
<polyline fill="none" stroke="black" points="51,-258.5 120,-258.5 "/>
<text text-anchor="start" x="59" y="-243.3" font-family="Times,serif" font-size="14.00">4</text>
<polyline fill="none" stroke="black" points="74,-235.5 74,-258.5 "/>
<text text-anchor="start" x="82" y="-243.3" font-family="Times,serif" font-size="14.00">5</text>
<polyline fill="none" stroke="black" points="97,-235.5 97,-258.5 "/>
<text text-anchor="start" x="105" y="-243.3" font-family="Times,serif" font-size="14.00">3</text>
<polyline fill="none" stroke="black" points="51,-235.5 120,-235.5 "/>
<text text-anchor="start" x="59" y="-220.3" font-family="Times,serif" font-size="14.00">7</text>
<polyline fill="none" stroke="black" points="74,-212.5 74,-235.5 "/>
<text text-anchor="start" x="82" y="-220.3" font-family="Times,serif" font-size="14.00">8</text>
<polyline fill="none" stroke="black" points="97,-212.5 97,-235.5 "/>
<text text-anchor="start" x="105" y="-220.3" font-family="Times,serif" font-size="14.00">6</text>
</g>
<!-- 16
120
453
786
LEFT&#45;&gt;17
123
450
786
UP -->
<g id="edge2" class="edge">
<title>16
120
453
786
LEFT&#45;&gt;17
123
450
786
UP</title>
<path fill="none" stroke="black" d="M60,-212.23C60,-203.79 60,-194.62 60,-185.77"/>
<polygon fill="black" stroke="black" points="63.5,-185.6 60,-175.6 56.5,-185.6 63.5,-185.6"/>
</g>
<!-- 15
102
453
786
LEFT -->
<g id="node4" class="node">
<title>15
102
453
786
LEFT</title>
<polygon fill="none" stroke="black" points="0,-318.5 0,-387.5 120,-387.5 120,-318.5 0,-318.5"/>
<text text-anchor="start" x="8" y="-350.3" font-family="Times,serif" font-weight="bold" font-size="14.00">13048</text>
<polyline fill="none" stroke="black" points="51,-318.5 51,-387.5 "/>
<text text-anchor="start" x="59" y="-372.3" font-family="Times,serif" font-size="14.00">1</text>
<polyline fill="none" stroke="black" points="74,-364.5 74,-387.5 "/>
<text text-anchor="start" x="82" y="-372.3" font-family="Times,serif" font-size="14.00">0</text>
<polyline fill="none" stroke="black" points="97,-364.5 97,-387.5 "/>
<text text-anchor="start" x="105" y="-372.3" font-family="Times,serif" font-size="14.00">2</text>
<polyline fill="none" stroke="black" points="51,-364.5 120,-364.5 "/>
<text text-anchor="start" x="59" y="-349.3" font-family="Times,serif" font-size="14.00">4</text>
<polyline fill="none" stroke="black" points="74,-341.5 74,-364.5 "/>
<text text-anchor="start" x="82" y="-349.3" font-family="Times,serif" font-size="14.00">5</text>
<polyline fill="none" stroke="black" points="97,-341.5 97,-364.5 "/>
<text text-anchor="start" x="105" y="-349.3" font-family="Times,serif" font-size="14.00">3</text>
<polyline fill="none" stroke="black" points="51,-341.5 120,-341.5 "/>
<text text-anchor="start" x="59" y="-326.3" font-family="Times,serif" font-size="14.00">7</text>
<polyline fill="none" stroke="black" points="74,-318.5 74,-341.5 "/>
<text text-anchor="start" x="82" y="-326.3" font-family="Times,serif" font-size="14.00">8</text>
<polyline fill="none" stroke="black" points="97,-318.5 97,-341.5 "/>
<text text-anchor="start" x="105" y="-326.3" font-family="Times,serif" font-size="14.00">6</text>
</g>
<!-- 15
102
453
786
LEFT&#45;&gt;16
120
453
786
LEFT -->
<g id="edge3" class="edge">
<title>15
102
453
786
LEFT&#45;&gt;16
120
453
786
LEFT</title>
<path fill="none" stroke="black" d="M60,-318.23C60,-309.79 60,-300.62 60,-291.77"/>
<polygon fill="black" stroke="black" points="63.5,-291.6 60,-281.6 56.5,-291.6 63.5,-291.6"/>
</g>
<!-- 14
012
453
786
DOWN -->
<g id="node5" class="node">
<title>14
012
453
786
DOWN</title>
<polygon fill="none" stroke="black" points="3.5,-424.5 3.5,-493.5 116.5,-493.5 116.5,-424.5 3.5,-424.5"/>
<text text-anchor="start" x="11.5" y="-456.3" font-family="Times,serif" font-weight="bold" font-size="14.00">7770</text>
<polyline fill="none" stroke="black" points="47.5,-424.5 47.5,-493.5 "/>
<text text-anchor="start" x="55.5" y="-478.3" font-family="Times,serif" font-size="14.00">0</text>
<polyline fill="none" stroke="black" points="70.5,-470.5 70.5,-493.5 "/>
<text text-anchor="start" x="78.5" y="-478.3" font-family="Times,serif" font-size="14.00">1</text>
<polyline fill="none" stroke="black" points="93.5,-470.5 93.5,-493.5 "/>
<text text-anchor="start" x="101.5" y="-478.3" font-family="Times,serif" font-size="14.00">2</text>
<polyline fill="none" stroke="black" points="47.5,-470.5 116.5,-470.5 "/>
<text text-anchor="start" x="55.5" y="-455.3" font-family="Times,serif" font-size="14.00">4</text>
<polyline fill="none" stroke="black" points="70.5,-447.5 70.5,-470.5 "/>
<text text-anchor="start" x="78.5" y="-455.3" font-family="Times,serif" font-size="14.00">5</text>
<polyline fill="none" stroke="black" points="93.5,-447.5 93.5,-470.5 "/>
<text text-anchor="start" x="101.5" y="-455.3" font-family="Times,serif" font-size="14.00">3</text>
<polyline fill="none" stroke="black" points="47.5,-447.5 116.5,-447.5 "/>
<text text-anchor="start" x="55.5" y="-432.3" font-family="Times,serif" font-size="14.00">7</text>
<polyline fill="none" stroke="black" points="70.5,-424.5 70.5,-447.5 "/>
<text text-anchor="start" x="78.5" y="-432.3" font-family="Times,serif" font-size="14.00">8</text>
<polyline fill="none" stroke="black" points="93.5,-424.5 93.5,-447.5 "/>
<text text-anchor="start" x="101.5" y="-432.3" font-family="Times,serif" font-size="14.00">6</text>
</g>
<!-- 14
012
453
786
DOWN&#45;&gt;15
102
453
786
LEFT -->
<g id="edge4" class="edge">
<title>14
012
453
786
DOWN&#45;&gt;15
102
453
786
LEFT</title>
<path fill="none" stroke="black" d="M60,-424.23C60,-415.79 60,-406.62 60,-397.77"/>
<polygon fill="black" stroke="black" points="63.5,-397.6 60,-387.6 56.5,-397.6 63.5,-397.6"/>
</g>
<!-- 13
412
053
786
RIGHT -->
<g id="node6" class="node">
<title>13
412
053
786
RIGHT</title>
<polygon fill="none" stroke="black" points="3.5,-530.5 3.5,-599.5 116.5,-599.5 116.5,-530.5 3.5,-530.5"/>
<text text-anchor="start" x="11.5" y="-562.3" font-family="Times,serif" font-weight="bold" font-size="14.00">4346</text>
<polyline fill="none" stroke="black" points="47.5,-530.5 47.5,-599.5 "/>
<text text-anchor="start" x="55.5" y="-584.3" font-family="Times,serif" font-size="14.00">4</text>
<polyline fill="none" stroke="black" points="70.5,-576.5 70.5,-599.5 "/>
<text text-anchor="start" x="78.5" y="-584.3" font-family="Times,serif" font-size="14.00">1</text>
<polyline fill="none" stroke="black" points="93.5,-576.5 93.5,-599.5 "/>
<text text-anchor="start" x="101.5" y="-584.3" font-family="Times,serif" font-size="14.00">2</text>
<polyline fill="none" stroke="black" points="47.5,-576.5 116.5,-576.5 "/>
<text text-anchor="start" x="55.5" y="-561.3" font-family="Times,serif" font-size="14.00">0</text>
<polyline fill="none" stroke="black" points="70.5,-553.5 70.5,-576.5 "/>
<text text-anchor="start" x="78.5" y="-561.3" font-family="Times,serif" font-size="14.00">5</text>
<polyline fill="none" stroke="black" points="93.5,-553.5 93.5,-576.5 "/>
<text text-anchor="start" x="101.5" y="-561.3" font-family="Times,serif" font-size="14.00">3</text>
<polyline fill="none" stroke="black" points="47.5,-553.5 116.5,-553.5 "/>
<text text-anchor="start" x="55.5" y="-538.3" font-family="Times,serif" font-size="14.00">7</text>
<polyline fill="none" stroke="black" points="70.5,-530.5 70.5,-553.5 "/>
<text text-anchor="start" x="78.5" y="-538.3" font-family="Times,serif" font-size="14.00">8</text>
<polyline fill="none" stroke="black" points="93.5,-530.5 93.5,-553.5 "/>
<text text-anchor="start" x="101.5" y="-538.3" font-family="Times,serif" font-size="14.00">6</text>
</g>
<!-- 13
412
053
786
RIGHT&#45;&gt;14
012
453
786
DOWN -->
<g id="edge5" class="edge">
<title>13
412
053
786
RIGHT&#45;&gt;14
012
453
786
DOWN</title>
<path fill="none" stroke="black" d="M60,-530.23C60,-521.79 60,-512.62 60,-503.77"/>
<polygon fill="black" stroke="black" points="63.5,-503.6 60,-493.6 56.5,-503.6 63.5,-503.6"/>
</g>
<!-- 12
412
503
786
DOWN -->
<g id="node7" class="node">
<title>12
412
503
786
DOWN</title>
<polygon fill="none" stroke="black" points="3.5,-636.5 3.5,-705.5 116.5,-705.5 116.5,-636.5 3.5,-636.5"/>
<text text-anchor="start" x="11.5" y="-668.3" font-family="Times,serif" font-weight="bold" font-size="14.00">2631</text>
<polyline fill="none" stroke="black" points="47.5,-636.5 47.5,-705.5 "/>
<text text-anchor="start" x="55.5" y="-690.3" font-family="Times,serif" font-size="14.00">4</text>
<polyline fill="none" stroke="black" points="70.5,-682.5 70.5,-705.5 "/>
<text text-anchor="start" x="78.5" y="-690.3" font-family="Times,serif" font-size="14.00">1</text>
<polyline fill="none" stroke="black" points="93.5,-682.5 93.5,-705.5 "/>
<text text-anchor="start" x="101.5" y="-690.3" font-family="Times,serif" font-size="14.00">2</text>
<polyline fill="none" stroke="black" points="47.5,-682.5 116.5,-682.5 "/>
<text text-anchor="start" x="55.5" y="-667.3" font-family="Times,serif" font-size="14.00">5</text>
<polyline fill="none" stroke="black" points="70.5,-659.5 70.5,-682.5 "/>
<text text-anchor="start" x="78.5" y="-667.3" font-family="Times,serif" font-size="14.00">0</text>
<polyline fill="none" stroke="black" points="93.5,-659.5 93.5,-682.5 "/>
<text text-anchor="start" x="101.5" y="-667.3" font-family="Times,serif" font-size="14.00">3</text>
<polyline fill="none" stroke="black" points="47.5,-659.5 116.5,-659.5 "/>
<text text-anchor="start" x="55.5" y="-644.3" font-family="Times,serif" font-size="14.00">7</text>
<polyline fill="none" stroke="black" points="70.5,-636.5 70.5,-659.5 "/>
<text text-anchor="start" x="78.5" y="-644.3" font-family="Times,serif" font-size="14.00">8</text>
<polyline fill="none" stroke="black" points="93.5,-636.5 93.5,-659.5 "/>
<text text-anchor="start" x="101.5" y="-644.3" font-family="Times,serif" font-size="14.00">6</text>
</g>
<!-- 12
412
503
786
DOWN&#45;&gt;13
412
053
786
RIGHT -->
<g id="edge6" class="edge">
<title>12
412
503
786
DOWN&#45;&gt;13
412
053
786
RIGHT</title>
<path fill="none" stroke="black" d="M60,-636.23C60,-627.79 60,-618.62 60,-609.77"/>
<polygon fill="black" stroke="black" points="63.5,-609.6 60,-599.6 56.5,-609.6 63.5,-609.6"/>
</g>
<!-- 11
412
583
706
LEFT -->
<g id="node8" class="node">
<title>11
412
583
706
LEFT</title>
<polygon fill="none" stroke="black" points="3.5,-742.5 3.5,-811.5 116.5,-811.5 116.5,-742.5 3.5,-742.5"/>
<text text-anchor="start" x="11.5" y="-774.3" font-family="Times,serif" font-weight="bold" font-size="14.00">1447</text>
<polyline fill="none" stroke="black" points="47.5,-742.5 47.5,-811.5 "/>
<text text-anchor="start" x="55.5" y="-796.3" font-family="Times,serif" font-size="14.00">4</text>
<polyline fill="none" stroke="black" points="70.5,-788.5 70.5,-811.5 "/>
<text text-anchor="start" x="78.5" y="-796.3" font-family="Times,serif" font-size="14.00">1</text>
<polyline fill="none" stroke="black" points="93.5,-788.5 93.5,-811.5 "/>
<text text-anchor="start" x="101.5" y="-796.3" font-family="Times,serif" font-size="14.00">2</text>
<polyline fill="none" stroke="black" points="47.5,-788.5 116.5,-788.5 "/>
<text text-anchor="start" x="55.5" y="-773.3" font-family="Times,serif" font-size="14.00">5</text>
<polyline fill="none" stroke="black" points="70.5,-765.5 70.5,-788.5 "/>
<text text-anchor="start" x="78.5" y="-773.3" font-family="Times,serif" font-size="14.00">8</text>
<polyline fill="none" stroke="black" points="93.5,-765.5 93.5,-788.5 "/>
<text text-anchor="start" x="101.5" y="-773.3" font-family="Times,serif" font-size="14.00">3</text>
<polyline fill="none" stroke="black" points="47.5,-765.5 116.5,-765.5 "/>
<text text-anchor="start" x="55.5" y="-750.3" font-family="Times,serif" font-size="14.00">7</text>
<polyline fill="none" stroke="black" points="70.5,-742.5 70.5,-765.5 "/>
<text text-anchor="start" x="78.5" y="-750.3" font-family="Times,serif" font-size="14.00">0</text>
<polyline fill="none" stroke="black" points="93.5,-742.5 93.5,-765.5 "/>
<text text-anchor="start" x="101.5" y="-750.3" font-family="Times,serif" font-size="14.00">6</text>
</g>
<!-- 11
412
583
706
LEFT&#45;&gt;12
412
503
786
DOWN -->
<g id="edge7" class="edge">
<title>11
412
583
706
LEFT&#45;&gt;12
412
503
786
DOWN</title>
<path fill="none" stroke="black" d="M60,-742.23C60,-733.79 60,-724.62 60,-715.77"/>
<polygon fill="black" stroke="black" points="63.5,-715.6 60,-705.6 56.5,-715.6 63.5,-715.6"/>
</g>
<!-- 10
412
583
076
UP -->
<g id="node9" class="node">
<title>10
412
583
076
UP</title>
<polygon fill="none" stroke="black" points="7,-848.5 7,-917.5 113,-917.5 113,-848.5 7,-848.5"/>
<text text-anchor="start" x="15" y="-880.3" font-family="Times,serif" font-weight="bold" font-size="14.00">853</text>
<polyline fill="none" stroke="black" points="44,-848.5 44,-917.5 "/>
<text text-anchor="start" x="52" y="-902.3" font-family="Times,serif" font-size="14.00">4</text>
<polyline fill="none" stroke="black" points="67,-894.5 67,-917.5 "/>
<text text-anchor="start" x="75" y="-902.3" font-family="Times,serif" font-size="14.00">1</text>
<polyline fill="none" stroke="black" points="90,-894.5 90,-917.5 "/>
<text text-anchor="start" x="98" y="-902.3" font-family="Times,serif" font-size="14.00">2</text>
<polyline fill="none" stroke="black" points="44,-894.5 113,-894.5 "/>
<text text-anchor="start" x="52" y="-879.3" font-family="Times,serif" font-size="14.00">5</text>
<polyline fill="none" stroke="black" points="67,-871.5 67,-894.5 "/>
<text text-anchor="start" x="75" y="-879.3" font-family="Times,serif" font-size="14.00">8</text>
<polyline fill="none" stroke="black" points="90,-871.5 90,-894.5 "/>
<text text-anchor="start" x="98" y="-879.3" font-family="Times,serif" font-size="14.00">3</text>
<polyline fill="none" stroke="black" points="44,-871.5 113,-871.5 "/>
<text text-anchor="start" x="52" y="-856.3" font-family="Times,serif" font-size="14.00">0</text>
<polyline fill="none" stroke="black" points="67,-848.5 67,-871.5 "/>
<text text-anchor="start" x="75" y="-856.3" font-family="Times,serif" font-size="14.00">7</text>
<polyline fill="none" stroke="black" points="90,-848.5 90,-871.5 "/>
<text text-anchor="start" x="98" y="-856.3" font-family="Times,serif" font-size="14.00">6</text>
</g>
<!-- 10
412
583
076
UP&#45;&gt;11
412
583
706
LEFT -->
<g id="edge8" class="edge">
<title>10
412
583
076
UP&#45;&gt;11
412
583
706
LEFT</title>
<path fill="none" stroke="black" d="M60,-848.23C60,-839.79 60,-830.62 60,-821.77"/>
<polygon fill="black" stroke="black" points="63.5,-821.6 60,-811.6 56.5,-821.6 63.5,-821.6"/>
</g>
<!-- 9
412
083
576
RIGHT -->
<g id="node10" class="node">
<title>9
412
083
576
RIGHT</title>
<polygon fill="none" stroke="black" points="7,-954.5 7,-1023.5 113,-1023.5 113,-954.5 7,-954.5"/>
<text text-anchor="start" x="15" y="-986.3" font-family="Times,serif" font-weight="bold" font-size="14.00">480</text>
<polyline fill="none" stroke="black" points="44,-954.5 44,-1023.5 "/>
<text text-anchor="start" x="52" y="-1008.3" font-family="Times,serif" font-size="14.00">4</text>
<polyline fill="none" stroke="black" points="67,-1000.5 67,-1023.5 "/>
<text text-anchor="start" x="75" y="-1008.3" font-family="Times,serif" font-size="14.00">1</text>
<polyline fill="none" stroke="black" points="90,-1000.5 90,-1023.5 "/>
<text text-anchor="start" x="98" y="-1008.3" font-family="Times,serif" font-size="14.00">2</text>
<polyline fill="none" stroke="black" points="44,-1000.5 113,-1000.5 "/>
<text text-anchor="start" x="52" y="-985.3" font-family="Times,serif" font-size="14.00">0</text>
<polyline fill="none" stroke="black" points="67,-977.5 67,-1000.5 "/>
<text text-anchor="start" x="75" y="-985.3" font-family="Times,serif" font-size="14.00">8</text>
<polyline fill="none" stroke="black" points="90,-977.5 90,-1000.5 "/>
<text text-anchor="start" x="98" y="-985.3" font-family="Times,serif" font-size="14.00">3</text>
<polyline fill="none" stroke="black" points="44,-977.5 113,-977.5 "/>
<text text-anchor="start" x="52" y="-962.3" font-family="Times,serif" font-size="14.00">5</text>
<polyline fill="none" stroke="black" points="67,-954.5 67,-977.5 "/>
<text text-anchor="start" x="75" y="-962.3" font-family="Times,serif" font-size="14.00">7</text>
<polyline fill="none" stroke="black" points="90,-954.5 90,-977.5 "/>
<text text-anchor="start" x="98" y="-962.3" font-family="Times,serif" font-size="14.00">6</text>
</g>
<!-- 9
412
083
576
RIGHT&#45;&gt;10
412
583
076
UP -->
<g id="edge9" class="edge">
<title>9
412
083
576
RIGHT&#45;&gt;10
412
583
076
UP</title>
<path fill="none" stroke="black" d="M60,-954.23C60,-945.79 60,-936.62 60,-927.77"/>
<polygon fill="black" stroke="black" points="63.5,-927.6 60,-917.6 56.5,-927.6 63.5,-927.6"/>
</g>
<!-- 8
412
803
576
UP -->
<g id="node11" class="node">
<title>8
412
803
576
UP</title>
<polygon fill="none" stroke="black" points="7,-1060.5 7,-1129.5 113,-1129.5 113,-1060.5 7,-1060.5"/>
<text text-anchor="start" x="15" y="-1092.3" font-family="Times,serif" font-weight="bold" font-size="14.00">293</text>
<polyline fill="none" stroke="black" points="44,-1060.5 44,-1129.5 "/>
<text text-anchor="start" x="52" y="-1114.3" font-family="Times,serif" font-size="14.00">4</text>
<polyline fill="none" stroke="black" points="67,-1106.5 67,-1129.5 "/>
<text text-anchor="start" x="75" y="-1114.3" font-family="Times,serif" font-size="14.00">1</text>
<polyline fill="none" stroke="black" points="90,-1106.5 90,-1129.5 "/>
<text text-anchor="start" x="98" y="-1114.3" font-family="Times,serif" font-size="14.00">2</text>
<polyline fill="none" stroke="black" points="44,-1106.5 113,-1106.5 "/>
<text text-anchor="start" x="52" y="-1091.3" font-family="Times,serif" font-size="14.00">8</text>
<polyline fill="none" stroke="black" points="67,-1083.5 67,-1106.5 "/>
<text text-anchor="start" x="75" y="-1091.3" font-family="Times,serif" font-size="14.00">0</text>
<polyline fill="none" stroke="black" points="90,-1083.5 90,-1106.5 "/>
<text text-anchor="start" x="98" y="-1091.3" font-family="Times,serif" font-size="14.00">3</text>
<polyline fill="none" stroke="black" points="44,-1083.5 113,-1083.5 "/>
<text text-anchor="start" x="52" y="-1068.3" font-family="Times,serif" font-size="14.00">5</text>
<polyline fill="none" stroke="black" points="67,-1060.5 67,-1083.5 "/>
<text text-anchor="start" x="75" y="-1068.3" font-family="Times,serif" font-size="14.00">7</text>
<polyline fill="none" stroke="black" points="90,-1060.5 90,-1083.5 "/>
<text text-anchor="start" x="98" y="-1068.3" font-family="Times,serif" font-size="14.00">6</text>
</g>
<!-- 8
412
803
576
UP&#45;&gt;9
412
083
576
RIGHT -->
<g id="edge10" class="edge">
<title>8
412
803
576
UP&#45;&gt;9
412
083
576
RIGHT</title>
<path fill="none" stroke="black" d="M60,-1060.23C60,-1051.79 60,-1042.62 60,-1033.77"/>
<polygon fill="black" stroke="black" points="63.5,-1033.6 60,-1023.6 56.5,-1033.6 63.5,-1033.6"/>
</g>
<!-- 7
402
813
576
LEFT -->
<g id="node12" class="node">
<title>7
402
813
576
LEFT</title>
<polygon fill="none" stroke="black" points="7,-1166.5 7,-1235.5 113,-1235.5 113,-1166.5 7,-1166.5"/>
<text text-anchor="start" x="15" y="-1198.3" font-family="Times,serif" font-weight="bold" font-size="14.00">158</text>
<polyline fill="none" stroke="black" points="44,-1166.5 44,-1235.5 "/>
<text text-anchor="start" x="52" y="-1220.3" font-family="Times,serif" font-size="14.00">4</text>
<polyline fill="none" stroke="black" points="67,-1212.5 67,-1235.5 "/>
<text text-anchor="start" x="75" y="-1220.3" font-family="Times,serif" font-size="14.00">0</text>
<polyline fill="none" stroke="black" points="90,-1212.5 90,-1235.5 "/>
<text text-anchor="start" x="98" y="-1220.3" font-family="Times,serif" font-size="14.00">2</text>
<polyline fill="none" stroke="black" points="44,-1212.5 113,-1212.5 "/>
<text text-anchor="start" x="52" y="-1197.3" font-family="Times,serif" font-size="14.00">8</text>
<polyline fill="none" stroke="black" points="67,-1189.5 67,-1212.5 "/>
<text text-anchor="start" x="75" y="-1197.3" font-family="Times,serif" font-size="14.00">1</text>
<polyline fill="none" stroke="black" points="90,-1189.5 90,-1212.5 "/>
<text text-anchor="start" x="98" y="-1197.3" font-family="Times,serif" font-size="14.00">3</text>
<polyline fill="none" stroke="black" points="44,-1189.5 113,-1189.5 "/>
<text text-anchor="start" x="52" y="-1174.3" font-family="Times,serif" font-size="14.00">5</text>
<polyline fill="none" stroke="black" points="67,-1166.5 67,-1189.5 "/>
<text text-anchor="start" x="75" y="-1174.3" font-family="Times,serif" font-size="14.00">7</text>
<polyline fill="none" stroke="black" points="90,-1166.5 90,-1189.5 "/>
<text text-anchor="start" x="98" y="-1174.3" font-family="Times,serif" font-size="14.00">6</text>
</g>
<!-- 7
402
813
576
LEFT&#45;&gt;8
412
803
576
UP -->
<g id="edge11" class="edge">
<title>7
402
813
576
LEFT&#45;&gt;8
412
803
576
UP</title>
<path fill="none" stroke="black" d="M60,-1166.23C60,-1157.79 60,-1148.62 60,-1139.77"/>
<polygon fill="black" stroke="black" points="63.5,-1139.6 60,-1129.6 56.5,-1139.6 63.5,-1139.6"/>
</g>
<!-- 6
042
813
576
DOWN -->
<g id="node13" class="node">
<title>6
042
813
576
DOWN</title>
<polygon fill="none" stroke="black" points="10.5,-1272.5 10.5,-1341.5 109.5,-1341.5 109.5,-1272.5 10.5,-1272.5"/>
<text text-anchor="start" x="18.5" y="-1304.3" font-family="Times,serif" font-weight="bold" font-size="14.00">90</text>
<polyline fill="none" stroke="black" points="40.5,-1272.5 40.5,-1341.5 "/>
<text text-anchor="start" x="48.5" y="-1326.3" font-family="Times,serif" font-size="14.00">0</text>
<polyline fill="none" stroke="black" points="63.5,-1318.5 63.5,-1341.5 "/>
<text text-anchor="start" x="71.5" y="-1326.3" font-family="Times,serif" font-size="14.00">4</text>
<polyline fill="none" stroke="black" points="86.5,-1318.5 86.5,-1341.5 "/>
<text text-anchor="start" x="94.5" y="-1326.3" font-family="Times,serif" font-size="14.00">2</text>
<polyline fill="none" stroke="black" points="40.5,-1318.5 109.5,-1318.5 "/>
<text text-anchor="start" x="48.5" y="-1303.3" font-family="Times,serif" font-size="14.00">8</text>
<polyline fill="none" stroke="black" points="63.5,-1295.5 63.5,-1318.5 "/>
<text text-anchor="start" x="71.5" y="-1303.3" font-family="Times,serif" font-size="14.00">1</text>
<polyline fill="none" stroke="black" points="86.5,-1295.5 86.5,-1318.5 "/>
<text text-anchor="start" x="94.5" y="-1303.3" font-family="Times,serif" font-size="14.00">3</text>
<polyline fill="none" stroke="black" points="40.5,-1295.5 109.5,-1295.5 "/>
<text text-anchor="start" x="48.5" y="-1280.3" font-family="Times,serif" font-size="14.00">5</text>
<polyline fill="none" stroke="black" points="63.5,-1272.5 63.5,-1295.5 "/>
<text text-anchor="start" x="71.5" y="-1280.3" font-family="Times,serif" font-size="14.00">7</text>
<polyline fill="none" stroke="black" points="86.5,-1272.5 86.5,-1295.5 "/>
<text text-anchor="start" x="94.5" y="-1280.3" font-family="Times,serif" font-size="14.00">6</text>
</g>
<!-- 6
042
813
576
DOWN&#45;&gt;7
402
813
576
LEFT -->
<g id="edge12" class="edge">
<title>6
042
813
576
DOWN&#45;&gt;7
402
813
576
LEFT</title>
<path fill="none" stroke="black" d="M60,-1272.23C60,-1263.79 60,-1254.62 60,-1245.77"/>
<polygon fill="black" stroke="black" points="63.5,-1245.6 60,-1235.6 56.5,-1245.6 63.5,-1245.6"/>
</g>
<!-- 5
842
013
576
RIGHT -->
<g id="node14" class="node">
<title>5
842
013
576
RIGHT</title>
<polygon fill="none" stroke="black" points="10.5,-1378.5 10.5,-1447.5 109.5,-1447.5 109.5,-1378.5 10.5,-1378.5"/>
<text text-anchor="start" x="18.5" y="-1410.3" font-family="Times,serif" font-weight="bold" font-size="14.00">50</text>
<polyline fill="none" stroke="black" points="40.5,-1378.5 40.5,-1447.5 "/>
<text text-anchor="start" x="48.5" y="-1432.3" font-family="Times,serif" font-size="14.00">8</text>
<polyline fill="none" stroke="black" points="63.5,-1424.5 63.5,-1447.5 "/>
<text text-anchor="start" x="71.5" y="-1432.3" font-family="Times,serif" font-size="14.00">4</text>
<polyline fill="none" stroke="black" points="86.5,-1424.5 86.5,-1447.5 "/>
<text text-anchor="start" x="94.5" y="-1432.3" font-family="Times,serif" font-size="14.00">2</text>
<polyline fill="none" stroke="black" points="40.5,-1424.5 109.5,-1424.5 "/>
<text text-anchor="start" x="48.5" y="-1409.3" font-family="Times,serif" font-size="14.00">0</text>
<polyline fill="none" stroke="black" points="63.5,-1401.5 63.5,-1424.5 "/>
<text text-anchor="start" x="71.5" y="-1409.3" font-family="Times,serif" font-size="14.00">1</text>
<polyline fill="none" stroke="black" points="86.5,-1401.5 86.5,-1424.5 "/>
<text text-anchor="start" x="94.5" y="-1409.3" font-family="Times,serif" font-size="14.00">3</text>
<polyline fill="none" stroke="black" points="40.5,-1401.5 109.5,-1401.5 "/>
<text text-anchor="start" x="48.5" y="-1386.3" font-family="Times,serif" font-size="14.00">5</text>
<polyline fill="none" stroke="black" points="63.5,-1378.5 63.5,-1401.5 "/>
<text text-anchor="start" x="71.5" y="-1386.3" font-family="Times,serif" font-size="14.00">7</text>
<polyline fill="none" stroke="black" points="86.5,-1378.5 86.5,-1401.5 "/>
<text text-anchor="start" x="94.5" y="-1386.3" font-family="Times,serif" font-size="14.00">6</text>
</g>
<!-- 5
842
013
576
RIGHT&#45;&gt;6
042
813
576
DOWN -->
<g id="edge13" class="edge">
<title>5
842
013
576
RIGHT&#45;&gt;6
042
813
576
DOWN</title>
<path fill="none" stroke="black" d="M60,-1378.23C60,-1369.79 60,-1360.62 60,-1351.77"/>
<polygon fill="black" stroke="black" points="63.5,-1351.6 60,-1341.6 56.5,-1351.6 63.5,-1351.6"/>
</g>
<!-- 4
842
103
576
RIGHT -->
<g id="node15" class="node">
<title>4
842
103
576
RIGHT</title>
<polygon fill="none" stroke="black" points="10.5,-1484.5 10.5,-1553.5 109.5,-1553.5 109.5,-1484.5 10.5,-1484.5"/>
<text text-anchor="start" x="18.5" y="-1516.3" font-family="Times,serif" font-weight="bold" font-size="14.00">30</text>
<polyline fill="none" stroke="black" points="40.5,-1484.5 40.5,-1553.5 "/>
<text text-anchor="start" x="48.5" y="-1538.3" font-family="Times,serif" font-size="14.00">8</text>
<polyline fill="none" stroke="black" points="63.5,-1530.5 63.5,-1553.5 "/>
<text text-anchor="start" x="71.5" y="-1538.3" font-family="Times,serif" font-size="14.00">4</text>
<polyline fill="none" stroke="black" points="86.5,-1530.5 86.5,-1553.5 "/>
<text text-anchor="start" x="94.5" y="-1538.3" font-family="Times,serif" font-size="14.00">2</text>
<polyline fill="none" stroke="black" points="40.5,-1530.5 109.5,-1530.5 "/>
<text text-anchor="start" x="48.5" y="-1515.3" font-family="Times,serif" font-size="14.00">1</text>
<polyline fill="none" stroke="black" points="63.5,-1507.5 63.5,-1530.5 "/>
<text text-anchor="start" x="71.5" y="-1515.3" font-family="Times,serif" font-size="14.00">0</text>
<polyline fill="none" stroke="black" points="86.5,-1507.5 86.5,-1530.5 "/>
<text text-anchor="start" x="94.5" y="-1515.3" font-family="Times,serif" font-size="14.00">3</text>
<polyline fill="none" stroke="black" points="40.5,-1507.5 109.5,-1507.5 "/>
<text text-anchor="start" x="48.5" y="-1492.3" font-family="Times,serif" font-size="14.00">5</text>
<polyline fill="none" stroke="black" points="63.5,-1484.5 63.5,-1507.5 "/>
<text text-anchor="start" x="71.5" y="-1492.3" font-family="Times,serif" font-size="14.00">7</text>
<polyline fill="none" stroke="black" points="86.5,-1484.5 86.5,-1507.5 "/>
<text text-anchor="start" x="94.5" y="-1492.3" font-family="Times,serif" font-size="14.00">6</text>
</g>
<!-- 4
842
103
576
RIGHT&#45;&gt;5
842
013
576
RIGHT -->
<g id="edge14" class="edge">
<title>4
842
103
576
RIGHT&#45;&gt;5
842
013
576
RIGHT</title>
<path fill="none" stroke="black" d="M60,-1484.23C60,-1475.79 60,-1466.62 60,-1457.77"/>
<polygon fill="black" stroke="black" points="63.5,-1457.6 60,-1447.6 56.5,-1457.6 63.5,-1457.6"/>
</g>
<!-- 3
842
130
576
UP -->
<g id="node16" class="node">
<title>3
842
130
576
UP</title>
<polygon fill="none" stroke="black" points="10.5,-1590.5 10.5,-1659.5 109.5,-1659.5 109.5,-1590.5 10.5,-1590.5"/>
<text text-anchor="start" x="18.5" y="-1622.3" font-family="Times,serif" font-weight="bold" font-size="14.00">14</text>
<polyline fill="none" stroke="black" points="40.5,-1590.5 40.5,-1659.5 "/>
<text text-anchor="start" x="48.5" y="-1644.3" font-family="Times,serif" font-size="14.00">8</text>
<polyline fill="none" stroke="black" points="63.5,-1636.5 63.5,-1659.5 "/>
<text text-anchor="start" x="71.5" y="-1644.3" font-family="Times,serif" font-size="14.00">4</text>
<polyline fill="none" stroke="black" points="86.5,-1636.5 86.5,-1659.5 "/>
<text text-anchor="start" x="94.5" y="-1644.3" font-family="Times,serif" font-size="14.00">2</text>
<polyline fill="none" stroke="black" points="40.5,-1636.5 109.5,-1636.5 "/>
<text text-anchor="start" x="48.5" y="-1621.3" font-family="Times,serif" font-size="14.00">1</text>
<polyline fill="none" stroke="black" points="63.5,-1613.5 63.5,-1636.5 "/>
<text text-anchor="start" x="71.5" y="-1621.3" font-family="Times,serif" font-size="14.00">3</text>
<polyline fill="none" stroke="black" points="86.5,-1613.5 86.5,-1636.5 "/>
<text text-anchor="start" x="94.5" y="-1621.3" font-family="Times,serif" font-size="14.00">0</text>
<polyline fill="none" stroke="black" points="40.5,-1613.5 109.5,-1613.5 "/>
<text text-anchor="start" x="48.5" y="-1598.3" font-family="Times,serif" font-size="14.00">5</text>
<polyline fill="none" stroke="black" points="63.5,-1590.5 63.5,-1613.5 "/>
<text text-anchor="start" x="71.5" y="-1598.3" font-family="Times,serif" font-size="14.00">7</text>
<polyline fill="none" stroke="black" points="86.5,-1590.5 86.5,-1613.5 "/>
<text text-anchor="start" x="94.5" y="-1598.3" font-family="Times,serif" font-size="14.00">6</text>
</g>
<!-- 3
842
130
576
UP&#45;&gt;4
842
103
576
RIGHT -->
<g id="edge15" class="edge">
<title>3
842
130
576
UP&#45;&gt;4
842
103
576
RIGHT</title>
<path fill="none" stroke="black" d="M60,-1590.23C60,-1581.79 60,-1572.62 60,-1563.77"/>
<polygon fill="black" stroke="black" points="63.5,-1563.6 60,-1553.6 56.5,-1563.6 63.5,-1563.6"/>
</g>
<!-- 2
840
132
576
LEFT -->
<g id="node17" class="node">
<title>2
840
132
576
LEFT</title>
<polygon fill="none" stroke="black" points="14,-1696.5 14,-1765.5 106,-1765.5 106,-1696.5 14,-1696.5"/>
<text text-anchor="start" x="22" y="-1728.3" font-family="Times,serif" font-weight="bold" font-size="14.00">6</text>
<polyline fill="none" stroke="black" points="37,-1696.5 37,-1765.5 "/>
<text text-anchor="start" x="45" y="-1750.3" font-family="Times,serif" font-size="14.00">8</text>
<polyline fill="none" stroke="black" points="60,-1742.5 60,-1765.5 "/>
<text text-anchor="start" x="68" y="-1750.3" font-family="Times,serif" font-size="14.00">4</text>
<polyline fill="none" stroke="black" points="83,-1742.5 83,-1765.5 "/>
<text text-anchor="start" x="91" y="-1750.3" font-family="Times,serif" font-size="14.00">0</text>
<polyline fill="none" stroke="black" points="37,-1742.5 106,-1742.5 "/>
<text text-anchor="start" x="45" y="-1727.3" font-family="Times,serif" font-size="14.00">1</text>
<polyline fill="none" stroke="black" points="60,-1719.5 60,-1742.5 "/>
<text text-anchor="start" x="68" y="-1727.3" font-family="Times,serif" font-size="14.00">3</text>
<polyline fill="none" stroke="black" points="83,-1719.5 83,-1742.5 "/>
<text text-anchor="start" x="91" y="-1727.3" font-family="Times,serif" font-size="14.00">2</text>
<polyline fill="none" stroke="black" points="37,-1719.5 106,-1719.5 "/>
<text text-anchor="start" x="45" y="-1704.3" font-family="Times,serif" font-size="14.00">5</text>
<polyline fill="none" stroke="black" points="60,-1696.5 60,-1719.5 "/>
<text text-anchor="start" x="68" y="-1704.3" font-family="Times,serif" font-size="14.00">7</text>
<polyline fill="none" stroke="black" points="83,-1696.5 83,-1719.5 "/>
<text text-anchor="start" x="91" y="-1704.3" font-family="Times,serif" font-size="14.00">6</text>
</g>
<!-- 2
840
132
576
LEFT&#45;&gt;3
842
130
576
UP -->
<g id="edge16" class="edge">
<title>2
840
132
576
LEFT&#45;&gt;3
842
130
576
UP</title>
<path fill="none" stroke="black" d="M60,-1696.23C60,-1687.79 60,-1678.62 60,-1669.77"/>
<polygon fill="black" stroke="black" points="63.5,-1669.6 60,-1659.6 56.5,-1669.6 63.5,-1669.6"/>
</g>
<!-- 1
804
132
576
LEFT -->
<g id="node18" class="node">
<title>1
804
132
576
LEFT</title>
<polygon fill="none" stroke="black" points="14,-1802.5 14,-1871.5 106,-1871.5 106,-1802.5 14,-1802.5"/>
<text text-anchor="start" x="22" y="-1834.3" font-family="Times,serif" font-weight="bold" font-size="14.00">2</text>
<polyline fill="none" stroke="black" points="37,-1802.5 37,-1871.5 "/>
<text text-anchor="start" x="45" y="-1856.3" font-family="Times,serif" font-size="14.00">8</text>
<polyline fill="none" stroke="black" points="60,-1848.5 60,-1871.5 "/>
<text text-anchor="start" x="68" y="-1856.3" font-family="Times,serif" font-size="14.00">0</text>
<polyline fill="none" stroke="black" points="83,-1848.5 83,-1871.5 "/>
<text text-anchor="start" x="91" y="-1856.3" font-family="Times,serif" font-size="14.00">4</text>
<polyline fill="none" stroke="black" points="37,-1848.5 106,-1848.5 "/>
<text text-anchor="start" x="45" y="-1833.3" font-family="Times,serif" font-size="14.00">1</text>
<polyline fill="none" stroke="black" points="60,-1825.5 60,-1848.5 "/>
<text text-anchor="start" x="68" y="-1833.3" font-family="Times,serif" font-size="14.00">3</text>
<polyline fill="none" stroke="black" points="83,-1825.5 83,-1848.5 "/>
<text text-anchor="start" x="91" y="-1833.3" font-family="Times,serif" font-size="14.00">2</text>
<polyline fill="none" stroke="black" points="37,-1825.5 106,-1825.5 "/>
<text text-anchor="start" x="45" y="-1810.3" font-family="Times,serif" font-size="14.00">5</text>
<polyline fill="none" stroke="black" points="60,-1802.5 60,-1825.5 "/>
<text text-anchor="start" x="68" y="-1810.3" font-family="Times,serif" font-size="14.00">7</text>
<polyline fill="none" stroke="black" points="83,-1802.5 83,-1825.5 "/>
<text text-anchor="start" x="91" y="-1810.3" font-family="Times,serif" font-size="14.00">6</text>
</g>
<!-- 1
804
132
576
LEFT&#45;&gt;2
840
132
576
LEFT -->
<g id="edge17" class="edge">
<title>1
804
132
576
LEFT&#45;&gt;2
840
132
576
LEFT</title>
<path fill="none" stroke="black" d="M60,-1802.23C60,-1793.79 60,-1784.62 60,-1775.77"/>
<polygon fill="black" stroke="black" points="63.5,-1775.6 60,-1765.6 56.5,-1775.6 63.5,-1775.6"/>
</g>
<!-- 0
084
132
576
NONE -->
<g id="node19" class="node">
<title>0
084
132
576
NONE</title>
<polygon fill="none" stroke="black" points="14,-1908.5 14,-1977.5 106,-1977.5 106,-1908.5 14,-1908.5"/>
<text text-anchor="start" x="22" y="-1940.3" font-family="Times,serif" font-weight="bold" font-size="14.00">0</text>
<polyline fill="none" stroke="black" points="37,-1908.5 37,-1977.5 "/>
<text text-anchor="start" x="45" y="-1962.3" font-family="Times,serif" font-size="14.00">0</text>
<polyline fill="none" stroke="black" points="60,-1954.5 60,-1977.5 "/>
<text text-anchor="start" x="68" y="-1962.3" font-family="Times,serif" font-size="14.00">8</text>
<polyline fill="none" stroke="black" points="83,-1954.5 83,-1977.5 "/>
<text text-anchor="start" x="91" y="-1962.3" font-family="Times,serif" font-size="14.00">4</text>
<polyline fill="none" stroke="black" points="37,-1954.5 106,-1954.5 "/>
<text text-anchor="start" x="45" y="-1939.3" font-family="Times,serif" font-size="14.00">1</text>
<polyline fill="none" stroke="black" points="60,-1931.5 60,-1954.5 "/>
<text text-anchor="start" x="68" y="-1939.3" font-family="Times,serif" font-size="14.00">3</text>
<polyline fill="none" stroke="black" points="83,-1931.5 83,-1954.5 "/>
<text text-anchor="start" x="91" y="-1939.3" font-family="Times,serif" font-size="14.00">2</text>
<polyline fill="none" stroke="black" points="37,-1931.5 106,-1931.5 "/>
<text text-anchor="start" x="45" y="-1916.3" font-family="Times,serif" font-size="14.00">5</text>
<polyline fill="none" stroke="black" points="60,-1908.5 60,-1931.5 "/>
<text text-anchor="start" x="68" y="-1916.3" font-family="Times,serif" font-size="14.00">7</text>
<polyline fill="none" stroke="black" points="83,-1908.5 83,-1931.5 "/>
<text text-anchor="start" x="91" y="-1916.3" font-family="Times,serif" font-size="14.00">6</text>
</g>
<!-- 0
084
132
576
NONE&#45;&gt;1
804
132
576
LEFT -->
<g id="edge18" class="edge">
<title>0
084
132
576
NONE&#45;&gt;1
804
132
576
LEFT</title>
<path fill="none" stroke="black" d="M60,-1908.23C60,-1899.79 60,-1890.62 60,-1881.77"/>
<polygon fill="black" stroke="black" points="63.5,-1881.6 60,-1871.6 56.5,-1881.6 63.5,-1881.6"/>
</g>
</g>
</svg>
